/vscmnt/brussel_pixiu_data/_data_brussel/112/vsc11236/PredSimResults/SUBJ09mtu3D/worker1.mot
version=1
nRows=11
nColumns=50
inDegrees=yes
endheader
                time	         pelvis_tilt	         pelvis_list	     pelvis_rotation	           pelvis_tx	           pelvis_ty	           pelvis_tz	       hip_flexion_r	     hip_adduction_r	      hip_rotation_r	        knee_angle_r	       ankle_angle_r	         mtp_angle_r	       hip_flexion_l	     hip_adduction_l	      hip_rotation_l	        knee_angle_l	       ankle_angle_l	         mtp_angle_l	    lumbar_extension	      lumbar_bending	     lumbar_rotation	 ercspn_r/activation	 intobl_r/activation	 extobl_r/activation	    abd_r/activation	    add_r/activation	hamstrings_r/activation	bifemsh_r/activation	glut_max_r/activation	iliopsoas_r/activation	rect_fem_r/activation	  vasti_r/activation	gastroc_r/activation	 soleus_r/activation	tib_ant_r/activation	 ercspn_l/activation	 intobl_l/activation	 extobl_l/activation	    abd_l/activation	    add_l/activation	hamstrings_l/activation	bifemsh_l/activation	glut_max_l/activation	iliopsoas_l/activation	rect_fem_l/activation	  vasti_l/activation	gastroc_l/activation	 soleus_l/activation	tib_ant_l/activation	
          0.63643049	         -9.13799844	          5.24761507	         -9.12814990	          0.78917380	          0.97742231	          0.01369142	         -7.38685190	         -5.37515641	          4.98266388	        -14.01743276	          7.66705064	         36.19035879	         32.92441492	          1.14316709	         -5.87024390	         -3.37004704	          6.42402925	          0.25104611	         -1.73811355	         -4.29975328	          3.28443792	          0.05882098	          0.01000001	          0.01000007	          0.03107266	          0.02774094	          0.01334805	          0.01629943	          0.02788644	          0.28748990	          0.12053780	          0.01000023	          0.28999765	          0.21147314	          0.01000000	          0.08157198	          0.09563486	          0.01000004	          0.02020724	          0.09695263	          0.08393319	          0.21355959	          0.07768459	          0.12303410	          0.01000015	          0.01000003	          0.01418239	          0.01000003	          0.28752505	
          0.64915910	         -9.18037577	          5.19419113	         -9.12405465	          0.80929774	          0.97528133	          0.01300814	         -8.43603057	         -5.50873120	          4.59692519	        -14.02958774	          6.25231804	         37.63996513	         33.02691471	          1.21143884	         -6.15794575	         -5.48577087	          5.99620335	          0.19949647	         -1.30610571	         -4.49010713	          3.46451350	          0.06701613	          0.01000001	          0.01000005	          0.02563449	          0.02718926	          0.01246740	          0.01344688	          0.02402848	          0.31216633	          0.09944186	          0.02334428	          0.26445271	          0.17446214	          0.00999999	          0.06729567	          0.07889733	          0.01000004	          0.06764644	          0.07998450	          0.07560109	          0.17618345	          0.13883216	          0.10150127	          0.01000006	          0.01000001	          0.01543795	          0.01212202	          0.32501383	
          0.66188771	         -9.21206413	          5.13848471	         -9.07333955	          0.82940960	          0.97352723	          0.01226300	         -9.19270881	         -5.60720849	          4.20416442	        -14.57342335	          4.75483524	         38.98993045	         33.01229286	          1.28402271	         -6.40268235	         -7.42192024	          5.48867516	          0.19219124	         -0.90081816	         -4.69146471	          3.60709035	          0.10035742	          0.01000001	          0.01000005	          0.02114808	          0.03572529	          0.01464882	          0.01109358	          0.01982318	          0.36039389	          0.08203804	          0.02158835	          0.22327889	          0.14392862	          0.01000000	          0.06925207	          0.06508910	          0.01000002	          0.13205489	          0.10750952	          0.06649844	          0.14534871	          0.19594943	          0.08373701	          0.01000002	          0.01000000	          0.01273608	          0.01000049	          0.36845876	
          0.67461632	         -9.23247129	          5.07657938	         -8.97841853	          0.84921135	          0.97241141	          0.01145399	         -9.53597171	         -5.66053069	          3.83382147	        -15.83424426	          3.22434510	         40.06423057	         32.95701091	          1.37141435	         -6.57285261	         -9.27120159	          4.98281173	          0.15096333	         -0.55283503	         -4.90011192	          3.70856553	          0.13712946	          0.01000001	          0.01000005	          0.01744685	          0.06166086	          0.01208521	          0.01000019	          0.01635384	          0.39495257	          0.06768014	          0.01781007	          0.18420170	          0.11873893	          0.01000000	          0.07924809	          0.05369753	          0.01000002	          0.17954183	          0.15369029	          0.05486023	          0.11991050	          0.24221025	          0.06908177	          0.01000006	          0.01000008	          0.01050710	          0.01000004	          0.38678496	
          0.68734492	         -9.23769106	          5.00986522	         -8.84107902	          0.86855830	          0.97206607	          0.01059766	         -9.36729831	         -5.66801696	          3.50104838	        -17.97802145	          1.73907870	         40.58733813	         32.88098748	          1.47707964	         -6.65955453	        -11.12896996	          4.80458454	          0.12015201	         -0.27356425	         -5.11884381	          3.76549792	          0.16649992	          0.01000002	          0.01000006	          0.01439339	          0.08807751	          0.01000034	          0.01000052	          0.01349168	          0.38343690	          0.05583509	          0.01469304	          0.15196361	          0.09795782	          0.01000000	          0.08300607	          0.04429965	          0.01000002	          0.20013695	          0.16695119	          0.04828208	          0.09892437	          0.26835775	          0.05699141	          0.01000008	          0.05018284	          0.01000028	          0.01000124	          0.38464657	
          0.70007353	         -9.22732086	          4.93217386	         -8.66134458	          0.88740568	          0.97258751	          0.00972664	         -8.65269307	         -5.62601393	          3.21103251	        -21.04528537	          0.30145729	         40.28528692	         32.69406559	          1.60614241	         -6.65311790	        -12.79373538	          4.78979398	          0.09707078	         -0.06208988	         -5.34165352	          3.77510827	          0.17085634	          0.01000001	          0.01000004	          0.01187434	          0.09326418	          0.01057564	          0.01000045	          0.01113044	          0.32698388	          0.04606311	          0.01212154	          0.12536768	          0.08081372	          0.01000000	          0.06847887	          0.03654654	          0.01000002	          0.18720887	          0.13773224	          0.04432459	          0.08161113	          0.25046468	          0.04701705	          0.01000005	          0.11300177	          0.01000017	          0.01000015	          0.37444214	
          0.71280214	         -9.20271805	          4.83459664	         -8.44022324	          0.90575422	          0.97396832	          0.00887027	         -7.44428733	         -5.53345745	          2.97313765	        -24.86893442	         -1.31276029	         39.21992297	         32.31884082	          1.75700638	         -6.54949149	        -14.11532067	          4.87609272	          0.08312339	          0.08392943	         -5.55810275	          3.73787287	          0.17366296	          0.01000001	          0.01000004	          0.01000000	          0.09214350	          0.01000014	          0.04464714	          0.01000000	          0.26975675	          0.03800137	          0.01000009	          0.10342643	          0.06667009	          0.01000001	          0.05649405	          0.03015035	          0.01000002	          0.17610088	          0.11362701	          0.04182847	          0.06732798	          0.21657092	          0.03878836	          0.01000005	          0.15850772	          0.01000035	          0.01000042	          0.35877530	
          0.72553075	         -9.16566961	          4.71259578	         -8.17815260	          0.92364566	          0.97608273	          0.00804687	         -5.83972925	         -5.39208355	          2.78634418	        -29.20680821	         -3.20085954	         37.30892995	         31.71728600	          1.92787329	         -6.33957520	        -15.02369021	          5.02662004	          0.07686937	          0.17193807	         -5.76116594	          3.65487482	          0.17915953	          0.01000002	          0.01000031	          0.01000000	          0.08339057	          0.01000028	          0.05349783	          0.01000000	          0.22254523	          0.03135056	          0.00999999	          0.08532524	          0.05500182	          0.03156760	          0.04660674	          0.02487358	          0.01000002	          0.17812688	          0.09374056	          0.03989383	          0.05554459	          0.17866779	          0.03199981	          0.01000004	          0.18398964	          0.01000006	          0.01000005	          0.34351931	
          0.73825936	         -9.11818412	          4.56589041	         -7.87836352	          0.94111109	          0.97873852	          0.00726684	         -3.95928074	         -5.20386959	          2.64654740	        -33.82916817	         -5.09643189	         34.13120484	         30.90586134	          2.11400356	         -6.00955802	        -15.55151736	          5.25072981	          0.07704392	          0.20977035	         -5.94630230	          3.53103593	          0.19684915	          0.02453040	          0.04959290	          0.01000000	          0.06879596	          0.01000003	          0.04413504	          0.01000000	          0.18359644	          0.02586375	          0.01000000	          0.07039203	          0.04537566	          0.11955607	          0.03844986	          0.02052033	          0.01000002	          0.17405371	          0.07733455	          0.03747280	          0.04582347	          0.14739824	          0.02639936	          0.01000004	          0.19230138	          0.01000007	          0.01000005	          0.32187181	
          0.75098797	         -9.06194676	          4.39728077	         -7.54677676	          0.95813177	          0.98171372	          0.00651803	         -1.93741117	         -4.96186561	          2.57225004	        -38.53665029	         -6.43429272	         29.56689411	         29.95178991	          2.30174725	         -5.58565882	        -15.81697631	          5.56750784	          0.08975536	          0.19818453	         -6.10665585	          3.37670862	          0.20687632	          0.02385706	          0.08608766	          0.01000001	          0.05675563	          0.01000002	          0.05540559	          0.01000000	          0.15146428	          0.02133723	          0.00999999	          0.05807236	          0.03743424	          0.17664256	          0.03172055	          0.01692896	          0.01000001	          0.16579075	          0.06379983	          0.03203655	          0.03780369	          0.12160134	          0.02177907	          0.01000005	          0.18905669	          0.01000005	          0.01000005	          0.29697784	
          0.76371658	         -8.99866708	          4.21004619	         -7.18443788	          0.97472878	          0.98485384	          0.00579245	          0.08398113	         -4.65176286	          2.54371019	        -43.02571130	         -6.42217821	         25.11308425	         28.91476577	          2.47827087	         -5.10526643	        -15.91428735	          5.92149632	          0.12401042	          0.14188879	         -6.23885328	          3.20053675	          0.20801399	          0.01968174	          0.08713643	          0.01000000	          0.04682254	          0.01000001	          0.07542448	          0.01000000	          0.12495576	          0.01760294	          0.00999999	          0.04790882	          0.03088268	          0.18443572	          0.02616898	          0.01396614	          0.01000001	          0.15570119	          0.05263389	          0.03095828	          0.03118750	          0.10219710	          0.01796741	          0.01000006	          0.17900954	          0.01000003	          0.01000004	          0.27149387	
